<?xml version="1.0" encoding="UTF-8" standalone="no"?>
<!-- Created with Sodipodi ("http://www.sodipodi.com/") -->

<svg
   xml:space="preserve"
   width="122.15499mm"
   height="122.15499mm"
   style="fill-rule:evenodd;image-rendering:optimizeQuality;shape-rendering:geometricPrecision;text-rendering:geometricPrecision"
   viewBox="0 0 9017.6559 10819.971"
   id="svg2"
   version="1.1"
   xmlns="http://www.w3.org/2000/svg"
   xmlns:svg="http://www.w3.org/2000/svg"
   xmlns:rdf="http://www.w3.org/1999/02/22-rdf-syntax-ns#"
   xmlns:cc="http://creativecommons.org/ns#"
   xmlns:dc="http://purl.org/dc/elements/1.1/"><metadata
     id="metadata22"><rdf:RDF><cc:Work
         rdf:about=""><dc:format>image/svg+xml</dc:format><dc:type
           rdf:resource="http://purl.org/dc/dcmitype/StillImage" /></cc:Work></rdf:RDF></metadata><defs
     id="defs4"></defs><g
     id="Layer 1"
     transform="matrix(4.590815,0,0,4.575039,-20823.289,-23861.114)"><path
       d="m 4752,7579 v -2306 -51 h 266 v 2306 51 z m 400,0 v -2306 -51 h 85 v 1155 c 42,-22 85,-67 127,-138 43,-70 79,-144 107,-223 28,-79 43,-137 45,-175 13,84 34,151 62,202 29,50 60,86 96,108 36,21 71,32 107,32 89,0 145,-40 169,-121 24,-81 36,-180 36,-297 0,-53 -1,-101 -4,-143 -3,-42 -9,-85 -20,-128 -10,-43 -27,-82 -51,-116 -25,-34 -57,-58 -97,-70 -36,-10 -72,-15 -107,-15 -32,0 -59,6 -80,17 -22,11 -34,28 -36,48 5,18 17,39 38,64 21,24 35,43 43,55 8,12 12,29 12,52 0,41 -14,75 -42,103 -28,28 -65,43 -112,43 -46,0 -84,-17 -112,-50 -28,-34 -43,-74 -45,-119 4,-61 26,-114 65,-158 40,-43 89,-76 148,-98 59,-22 118,-33 178,-33 68,0 133,12 195,36 63,24 119,60 167,106 49,47 88,104 116,172 28,67 42,144 42,229 0,118 -22,216 -65,293 -44,78 -100,136 -168,172 -69,36 -142,56 -219,58 -80,-5 -147,-23 -200,-54 l -106,172 106,171 c 73,-30 145,-45 215,-45 89,0 166,26 233,76 66,51 117,116 152,197 34,81 52,164 52,250 0,94 -21,182 -63,263 -42,81 -101,145 -177,194 -77,48 -164,72 -263,72 -115,-5 -211,-32 -288,-82 -77,-49 -115,-123 -115,-220 4,-47 21,-83 51,-110 30,-28 62,-42 97,-45 42,0 80,15 113,45 33,29 50,66 50,110 0,17 -4,33 -12,48 -8,14 -19,31 -35,51 -16,19 -27,33 -33,42 -6,10 -11,21 -13,35 0,18 11,33 34,45 22,12 51,19 86,22 110,-5 183,-52 220,-139 36,-89 54,-198 54,-331 0,-115 -13,-216 -39,-302 -26,-87 -82,-130 -170,-130 -78,0 -138,33 -180,101 -42,67 -69,146 -81,237 -13,-77 -33,-151 -62,-222 -29,-72 -62,-135 -101,-189 -37,-53 -78,-96 -120,-126 v 1160 z"
       id="path19"
       style="fill-opacity:1;stroke-width:2.99574;stroke-dasharray:none" /></g></svg>
